<svg version="1.1" id="Airplane--Streamline-Noto-Emoji" xmlns="http://www.w3.org/2000/svg" xmlns:xlink="http://www.w3.org/1999/xlink" x="0" y="0" viewBox="0 0 64 64" xml:space="preserve" enable-background="new 0 0 128 128" height="64" width="64">
  <desc>
    Airplane Streamline Emoji: https://streamlinehq.com
  </desc>
  <path d="M18.0669 41.0925S3.8721 38.05925 3.62925 38.10575c-0.2429 0.0465 -3.08495 2.88855 -2.98675 3.3278 0.09815 0.4444 12.53085 7.0018 12.53085 7.0018l3.5707 -3.76705 1.32285 -3.5758Z" fill="#006CA8" stroke-width="0.5"></path>
  <path d="M16.10845 51.12755s6.89845 11.9418 7.193 11.9418 3.47245 -2.44935 3.47245 -2.6922c0 -0.2429 -2.93505 -14.48415 -2.93505 -14.48415L18.7955 46.48205l-2.68705 4.6455Z" fill="#006CA8" stroke-width="0.5"></path>
  <path d="M10.6827 12.66675s-0.99215 1.1213 -1.204 1.5192 -0.24805 1.08 0.2067 1.32285c0.4547 0.24285 1.00765 0.0775 1.2815 -0.22735s1.62255 -1.9636 1.62255 -1.9636 -1.7879 -0.7441 -1.90675 -0.6511Z" fill="#9A9A9A" stroke-width="0.5"></path>
  <path d="M17.92735 16.72315s-0.80095 0.9508 -1.1265 1.38485c-0.3152 0.41855 -0.31 1.0748 0.1292 1.38485 0.63045 0.4444 1.2557 -0.05165 1.59675 -0.41855 0.3152 -0.34105 1.204 -1.38485 1.204 -1.38485l-1.80345 -0.9663Z" fill="#9A9A9A" stroke-width="0.5"></path>
  <path d="M24.78445 20.41265s-1.04895 1.04895 -1.359 1.46755c-0.3462 0.4599 -0.42375 1.13165 0.05165 1.49335 0.52195 0.3927 1.10065 0.21185 1.5709 -0.21185 0.47025 -0.41855 1.5192 -1.5709 1.5192 -1.5709l-1.78275 -1.17815Z" fill="#9A9A9A" stroke-width="0.5"></path>
  <path d="M42.8858 38.1264s-1.22985 0.85265 -1.5347 1.18335c-0.29975 0.3307 -0.50125 0.99215 -0.1137 1.33835 0.3824 0.3462 0.96115 0.3152 1.3022 0.08785 0.34105 -0.2274 2.04625 -1.51405 2.04625 -1.51405s-1.56055 -1.15235 -1.70005 -1.0955Z" fill="#9A9A9A" stroke-width="0.5"></path>
  <path d="M47.03005 44.61665s-1.018 0.7131 -1.4417 1.04895c-0.4134 0.32555 -0.5736 0.96115 -0.2274 1.37455 0.4909 0.58905 1.22985 0.27385 1.6484 0.00515 0.39275 -0.24805 1.5192 -1.0335 1.5192 -1.0335l-1.4985 -1.39515Z" fill="#9A9A9A" stroke-width="0.5"></path>
  <path d="M50.8229 51.25155s-1.266 0.76475 -1.67425 1.0955c-0.4444 0.36685 -0.6821 0.9973 -0.30485 1.46235 0.41335 0.5064 1.01795 0.46505 1.57605 0.1757s1.8499 -1.1575 1.8499 -1.1575l-1.44685 -1.57605Z" fill="#9A9A9A" stroke-width="0.5"></path>
  <path d="M28.4998 11.60745s-0.18085 -1.204 0.7958 -2.56305c0.9766 -1.359 4.21655 -4.53175 4.7178 -4.5576s1.70005 0.60975 2.90405 1.79305c1.1472 1.12135 1.6794 2.56305 1.7001 2.9041 0.02065 0.34105 -2.24265 2.5837 -2.83175 3.12625 -0.58905 0.5426 -2.17545 2.3098 -2.17545 2.3098l-5.11055 -3.01255Z" fill="#9A9A9A" stroke-width="0.5"></path>
  <path d="M29.9777 11.7883s3.96855 -4.85215 5.033 -4.12355c1.0748 0.73375 -3.21925 4.89865 -3.21925 4.89865l-1.81375 -0.7751Z" fill="#C8C8C8" stroke-width="0.5"></path>
  <path d="M29.06825 11.47825s2.2478 -2.2788 2.4958 -2.64055c0.24805 -0.3617 0.0207 -0.90425 -0.18085 -1.204 -0.2015 -0.2945 -0.51155 -0.4082 -0.51155 -0.4082s-1.5864 1.42105 -2.12895 2.66635c-0.42375 0.9663 -0.3514 1.4572 -0.3514 1.4572l0.67695 0.1292Z" fill="#848484" stroke-width="0.5"></path>
  <path d="M32.9386 12.65125s0.8526 -0.8836 1.2815 -1.235c0.38755 -0.3152 0.96115 -0.2842 1.3022 -0.0827 0.4392 0.2584 0.54255 0.7028 0.54255 0.7028l-1.5812 1.67935 -1.54505 -1.06445Z" fill="#848484" stroke-width="0.5"></path>
  <path d="M51.5928 30.0653s1.29705 -1.50885 2.05145 -2.2633c0.7803 -0.7803 2.05145 -1.8396 2.30985 -1.8189 0.25835 0.0258 1.40035 0.71825 2.47515 1.8189 1.2247 1.2505 1.9843 2.8059 2.00495 2.95055 0.02585 0.13955 -2.2633 2.4287 -3.2813 3.30195 -0.7286 0.6253 -5.26035 2.4752 -5.26035 2.24265 0.0103 -0.2377 -0.29975 -6.23185 -0.29975 -6.23185Z" fill="#9A9A9A" stroke-width="0.5"></path>
  <path d="M52.3421 32.98485s3.7515 -4.1132 4.6093 -3.34325c0.85775 0.7699 -4.2941 5.3999 -4.2941 5.3999l-0.3152 -2.05665Z" fill="#C8C8C8" stroke-width="0.5"></path>
  <path d="M52.06305 31.9514s1.06965 -1.17815 1.36935 -1.5089c0.48575 -0.5322 0.45475 -1.2453 0.31005 -1.55535 -0.186 -0.3979 -0.6666 -0.4909 -0.6666 -0.4909l-1.78275 1.8964 0.76995 1.65875Z" fill="#848484" stroke-width="0.5"></path>
  <path d="M53.36005 35.36705s2.14965 -1.9378 2.5165 -2.24265c0.3669 -0.3049 0.96115 -0.5219 1.4314 -0.19635 0.35135 0.24285 0.5064 0.5374 0.5064 0.5374s-1.65355 1.79825 -2.65085 2.43385c-0.6253 0.39785 -2.10315 0.62525 -2.10315 0.62525l0.2997 -1.1575Z" fill="#848484" stroke-width="0.5"></path>
  <path d="M4.92625 3.95455c-0.5064 0.04135 -3.71535 3.8342 -3.82905 4.11325s0 0.73375 0.79065 1.12645c0.7854 0.39275 22.9793 12.11235 23.32035 12.3914 0.3359 0.2842 4.7333 5.18285 4.7333 5.18285s10.87215 -7.49265 10.81535 -7.71485c-0.05685 -0.2274 -0.39275 -4.8987 -0.39275 -4.8987S5.66 3.8977 4.92625 3.95455Z" fill="#006CA8" stroke-width="0.5"></path>
  <path d="M36.6436 33.3621s6.64525 6.02515 7.2085 6.7589c0.56325 0.7338 12.0555 21.6875 12.226 22.0234 0.17055 0.33585 0.89915 0.62005 1.297 0.22735s3.3795 -2.98675 3.4363 -3.60685c0.05685 -0.62005 -11.04265 -36.38865 -11.04265 -36.38865l-8.56235 3.10045 -4.5628 7.8854Z" fill="#006CA8" stroke-width="0.5"></path>
  <path d="M33.4295 21.6993S28.18975 16.63015 27.79705 16.3459c-0.3927 -0.279 -24.95325 -10.4174 -24.95325 -10.4174l-1.00765 1.111s24.8964 10.5156 25.2943 10.79465c0.3979 0.279 5.27075 5.2707 5.27075 5.2707l1.0283 -1.4055Z" fill="#014EAC" stroke-width="0.5"></path>
  <path d="M41.48545 30.58205s5.77195 7.08965 6.11815 7.54955 10.4691 23.58905 10.4691 23.58905l1.00765 -0.94045S48.9678 37.1808 48.78695 36.8604c-0.1809 -0.32035 -6.90365 -8.6295 -6.90365 -8.6295l-0.39785 2.35115Z" fill="#014EAC" stroke-width="0.5"></path>
  <path d="M11.42165 50.19225s-2.16 3.0901 -2.16 3.33295c0 0.24805 1.4469 1.82925 1.61225 1.82925s3.3071 -2.24265 3.3071 -2.24265l-0.4392 -2.24265 -2.32015 -0.6769Z" fill="#9A9A9A" stroke-width="0.5"></path>
  <path d="M11.42165 50.19225s4.27855 -7.19815 8.86205 -13.63155C24.99115 29.9516 28.80985 26.14325 34.68 19.7564 42.0435 11.74695 46.94735 7.21 51.4843 4.1561c3.76185 -2.53205 9.13595 -4.2476 11.05305 -2.5372 2.1031 1.88095 -0.21705 7.8131 -2.57855 11.19255 -5.35855 7.6684 -9.95755 11.31655 -15.2334 16.4374 -5.20355 5.04855 -9.601 9.4305 -15.0474 13.51785 -3.66885 2.75425 -15.50215 10.35545 -15.50215 10.35545l-2.7542 -2.9299Z" fill="#C8C8C8" stroke-width="0.5"></path>
  <path d="m52.60565 5.0552 1.43135 1.5089s2.39765 -2.30985 4.19075 -0.5891c1.83955 1.76205 -0.6976 4.2631 -0.6976 4.2631l1.54505 1.7259s4.1907 -4.74365 0.7699 -7.8286c-2.9764 -2.687 -7.23945 0.9198 -7.23945 0.9198Z" fill="#3B5361" stroke-width="0.5"></path>
  <path d="M23.627 37.58385c-0.6666 0.64075 -8.5417 9.9627 -8.9809 10.5156 -0.56325 0.7131 -0.82165 1.5709 -0.18605 2.09795 0.6356 0.5219 1.32285 0.00515 1.9481 -0.4134 0.78545 -0.5219 9.91105 -8.57265 10.5156 -9.13075 0.9715 -0.8991 1.13685 -2.52165 0.1137 -3.44145 -1.1265 -1.0128 -2.39765 -0.59945 -3.4105 0.37205Z" fill="#9A9A9A" stroke-width="0.5"></path>
  <path d="M23.34275 35.4704c-0.44955 -0.38755 -1.0076 -0.1292 -1.5967 0.5064 -0.5064 0.5529 -0.73895 1.4107 -0.23255 1.7569 0.50645 0.3462 1.1782 -0.1602 1.59675 -0.67175 0.41855 -0.5064 0.73895 -1.15235 0.2325 -1.59155Z" fill="#DFDFDF" stroke-width="0.5"></path>
  <path d="M24.79995 32.46295c-0.46505 0.53225 -1.14195 1.4107 -0.5064 2.03595 0.62525 0.61495 1.5709 -0.16535 1.9843 -0.6304 0.4082 -0.46505 5.0847 -5.95285 11.00135 -11.8643 5.7771 -5.77715 9.663 -9.43045 10.2624 -10.0712 0.5064 -0.5426 0.4599 -1.40555 0.0155 -1.6794 -0.52705 -0.32555 -1.111 -0.11885 -1.8344 0.60455S40.09025 16.07205 35.46025 20.7537 25.3787 31.7964 24.79995 32.46295Z" fill="#DFDFDF" stroke-width="0.5"></path>
  <path d="M53.40655 20.8467s-0.2842 -1.92225 -1.47785 -1.1678c-1.2815 0.81125 -0.32555 3.01255 -0.32555 3.01255s0.48055 -0.44955 0.99215 -0.98695c0.4237 -0.43925 0.67175 -0.6976 0.81125 -0.8578Z" fill="#3B5361" stroke-width="0.5"></path>
  <path d="M48.8231 25.36815s-0.2015 -2.46485 -1.55535 -1.452c-1.08 0.81125 -0.34625 3.23475 -0.34625 3.23475s0.6201 -0.56325 1.02315 -0.9456c0.40825 -0.3876 0.87845 -0.83715 0.87845 -0.83715Z" fill="#3B5361" stroke-width="0.5"></path>
  <path d="M44.4515 29.5124s-0.155 -2.0463 -1.36935 -1.36935 -0.40305 3.09525 -0.40305 3.09525 0.5374 -0.48575 0.8991 -0.84745 0.8733 -0.87845 0.8733 -0.87845Z" fill="#3B5361" stroke-width="0.5"></path>
  <path d="M39.50115 34.2974s-0.093 -2.03595 -1.28665 -1.4934c-1.2402 0.56325 -0.4961 3.1728 -0.4961 3.1728s0.6046 -0.56325 0.9405 -0.87845c0.341 -0.31005 0.84225 -0.80095 0.84225 -0.80095Z" fill="#3B5361" stroke-width="0.5"></path>
</svg>