<?xml version="1.0" encoding="UTF-8"?>
<svg id="wh-logo-std" xmlns="http://www.w3.org/2000/svg" viewBox="0 0 1227.39 1215.13">
  <defs>
    <style>
      .cls-1 {
        fill: #2e3192;
        stroke-width: 0px;
      }
    </style>
  </defs>
  <path class="cls-1" d="M996.38,1206.62H231.19c-119.98,0-217.5-95.23-217.5-212.4V468.59c0-71.05,36.09-137.23,96.75-176.59L493.05,42.67c73.33-47.8,168.17-47.8,241.49,0l382.4,249.32c60.66,39.56,96.75,105.54,96.75,176.59v525.83c0,117.16-97.52,212.39-217.5,212.39l.18-.19ZM613.78,100.58c-23.42,0-47.03,6.75-67.38,20.06l-382.6,249.14c-33.79,22.12-53.94,58.86-53.94,98.61v525.83c0,65.42,54.52,118.66,121.52,118.66h765c67,0,121.52-53.24,121.52-118.66V468.58c0-39.74-20.16-76.67-54.13-98.61l-382.4-249.32c-20.54-13.31-43.96-20.06-67.57-20.06h0Z"/>
</svg>