<?xml version="1.0" encoding="UTF-8"?>
<svg xmlns="http://www.w3.org/2000/svg" viewBox="0 0 4300 600">
  <defs>
    <style>
      .cls-1 {
        fill: none;
      }

      .cls-1, .cls-2, .cls-3 {
        stroke-width: 0px;
      }

      .cls-2 {
        fill: #2e3192;
      }

      .cls-3 {
        fill: #231f20;
      }
    </style>
  </defs>
  <g id="Layer_1" data-name="Layer 1">
    <rect class="cls-1" x="125.12" y="577.19" width="2169.84" height="56.85"/>
  </g>
  <g id="wh-word-std">
    <g>
      <path class="cls-3" d="M155.12,577.98L40.69,190.91h113.66l72.19,309.5h-20.74l82.18-309.5h126.72l82.94,308.74-21.5.77,72.19-309.5h112.9l-112.9,387.07h-119.81l-89.86-317.18h24.58l-88.32,317.18h-119.81Z"/>
      <path class="cls-3" d="M785.65,587.2c-31.75,0-58.25-5.26-79.49-15.74-21.25-10.49-36.86-24.44-46.85-41.86-9.98-17.4-14.98-36.86-14.98-58.37s5.76-42.88,17.28-61.06c11.52-18.17,29.44-32.38,53.76-42.62,24.31-10.24,55.68-15.36,94.08-15.36h92.93c0-17.4-2.18-31.87-6.53-43.39-4.36-11.52-11.4-20.09-21.12-25.73-9.73-5.63-23.04-8.45-39.94-8.45-17.93,0-33.02,3.72-45.31,11.14-12.29,7.43-19.97,18.82-23.04,34.18h-110.59c2.56-27.65,11.52-51.71,26.88-72.19,15.36-20.47,36.22-36.6,62.59-48.38,26.36-11.77,56.45-17.66,90.24-17.66,36.87,0,68.86,5.89,96,17.66,27.13,11.78,48.25,29.32,63.36,52.61,15.1,23.3,22.66,52.1,22.66,86.4v239.62h-96l-13.82-56.06c-5.64,9.73-12.29,18.56-19.97,26.5-7.68,7.94-16.64,14.86-26.88,20.74-10.25,5.89-21.5,10.37-33.79,13.44-12.29,3.07-26.11,4.61-41.47,4.61ZM814.83,499.65c11.77,0,22.27-2.04,31.49-6.14,9.22-4.09,17.28-9.72,24.19-16.9,6.91-7.16,12.54-15.48,16.9-24.96,4.34-9.47,7.55-20.09,9.6-31.87h-74.5c-12.8,0-23.56,1.67-32.26,4.99-8.71,3.34-14.98,8.2-18.82,14.59-3.84,6.41-5.76,13.44-5.76,21.12,0,8.71,2.17,15.88,6.53,21.5,4.34,5.64,10.24,9.98,17.66,13.06,7.42,3.07,15.74,4.61,24.96,4.61Z"/>
      <path class="cls-3" d="M1068.26,577.98V25.02h115.2v552.96h-115.2Z"/>
      <path class="cls-3" d="M1237.22,577.98V25.02h115.2v552.96h-115.2ZM1494.5,577.98l-158.98-211.97,142.08-175.1h135.94l-192,224.26v-92.93l215.81,255.74h-142.85Z"/>
      <path class="cls-3" d="M1807.08,587.2c-39.94,0-74.88-8.33-104.83-24.96-29.95-16.63-53.38-39.94-70.27-69.89-16.9-29.95-25.34-64.38-25.34-103.3s8.18-75.52,24.58-106.75c16.38-31.22,39.8-55.8,70.27-73.73,30.46-17.92,65.66-26.88,105.6-26.88s72.96,8.33,102.14,24.96c29.18,16.64,51.96,39.55,68.35,68.74,16.38,29.18,24.58,62.72,24.58,100.61,0,5.12-.13,10.88-.38,17.28-.26,6.41-.65,12.94-1.15,19.58h-312.58v-67.58h198.14c-1.54-20.99-9.48-38.14-23.81-51.46-14.34-13.31-32.52-19.97-54.53-19.97-16.9,0-32,3.84-45.31,11.52-13.32,7.68-23.69,19.33-31.1,34.94-7.43,15.62-11.14,35.21-11.14,58.75v22.27c0,17.93,3.32,33.92,9.98,48,6.65,14.09,16.63,24.96,29.95,32.64,13.31,7.68,28.42,11.52,45.31,11.52s31.61-3.46,42.62-10.37c11-6.91,19.58-15.48,25.73-25.73h117.5c-7.18,23.56-19.46,45.31-36.87,65.28-17.41,19.97-38.53,35.71-63.36,47.23-24.84,11.52-52.87,17.28-84.1,17.28Z"/>
      <path class="cls-3" d="M2042.09,577.98V190.91h102.14l9.98,70.66c10.24-16.38,22.27-30.46,36.1-42.24,13.82-11.77,29.69-20.99,47.62-27.65,17.92-6.65,37.88-9.98,59.9-9.98v122.11h-39.17c-15.36,0-29.18,1.67-41.47,4.99-12.29,3.34-23.04,8.83-32.26,16.51-9.22,7.68-16.13,18.05-20.74,31.1-4.61,13.06-6.91,29.32-6.91,48.77v172.8h-115.2Z"/>
      <path class="cls-2" d="M2284.77,577.98l96.77-552.96h115.2l-39.17,220.42c15.86-18.43,35.33-33.66,58.37-45.7,23.04-12.02,48.64-18.05,76.8-18.05,32.76,0,59,6.91,78.72,20.74,19.71,13.82,32.89,33.79,39.55,59.9,6.65,26.11,6.65,58.12,0,96l-39.17,219.65h-114.43l37.63-209.66c4.61-28.67,2.3-50.81-6.91-66.43-9.21-15.61-26.88-23.42-52.99-23.42-16.39,0-31.49,3.97-45.31,11.9-13.82,7.94-25.34,18.82-34.56,32.64-9.22,13.82-15.88,30.47-19.97,49.92l-35.33,205.06h-115.2Z"/>
      <path class="cls-2" d="M2912.23,587.2c-35.33,0-65.93-7.81-91.78-23.42-25.86-15.61-45.44-37.25-58.75-64.9-13.32-27.65-19.2-58.62-17.66-92.93,1.54-31.74,8.32-61.31,20.35-88.7,12.02-27.38,28.54-51.07,49.54-71.04,20.99-19.97,45.31-35.71,72.96-47.23s56.83-17.28,87.55-17.28c35.83,0,66.68,7.68,92.54,23.04,25.85,15.36,45.7,36.61,59.52,63.74,13.82,27.14,19.7,58.63,17.66,94.46-1.03,32.26-7.68,61.96-19.97,89.09-12.29,27.14-29.06,50.69-50.3,70.66-21.25,19.97-45.58,35.71-72.96,47.23-27.4,11.52-56.96,17.28-88.7,17.28ZM2927.59,487.36c18.43,0,34.81-5.11,49.15-15.36,14.33-10.24,25.85-24.44,34.56-42.62,8.7-18.17,13.56-39.04,14.59-62.59,1.54-18.43-.26-33.91-5.38-46.46-5.12-12.54-12.8-22.14-23.04-28.8-10.25-6.65-22.27-9.98-36.1-9.98-17.93,0-34.18,5.26-48.77,15.74-14.59,10.5-26.24,24.71-34.94,42.62-8.71,17.93-13.82,38.92-15.36,62.98-.52,17.41,1.79,32.39,6.91,44.93,5.11,12.55,12.79,22.27,23.04,29.18,10.24,6.91,22.01,10.37,35.33,10.37Z"/>
      <path class="cls-2" d="M3153.37,577.98l67.58-387.07h99.84l.77,50.69c15.36-17.92,33.14-32.38,53.38-43.39,20.22-11,43.64-16.51,70.27-16.51,18.43,0,35.2,2.57,50.3,7.68,15.1,5.12,27.9,12.42,38.4,21.89,10.49,9.48,18.55,21.38,24.19,35.71,17.4-19.97,38.14-35.83,62.21-47.62,24.06-11.77,49.4-17.66,76.03-17.66,34.29,0,62.08,6.91,83.33,20.74,21.24,13.82,35.71,33.79,43.39,59.9,7.68,26.11,7.93,57.86.77,95.23l-39.17,220.42h-113.66l36.1-209.66c5.11-29.18,3.07-51.46-6.14-66.82s-25.61-23.04-49.15-23.04c-13.32,0-25.99,3.34-38.02,9.98-12.04,6.66-22.27,16.26-30.72,28.8-8.45,12.55-14.47,27.53-18.05,44.93l-38.4,215.81h-115.2l37.63-209.66c5.11-29.18,2.94-51.46-6.53-66.82-9.48-15.36-25.73-23.04-48.77-23.04-14.86,0-28.3,3.72-40.32,11.14-12.04,7.43-22.4,18.05-31.1,31.87-8.71,13.82-14.86,30.72-18.43,50.69l-35.33,205.82h-115.2Z"/>
      <path class="cls-2" d="M4025.82,587.2c-36.36,0-67.46-7.18-93.31-21.5-25.86-14.33-45.44-34.68-58.75-61.06-13.32-26.36-19.2-56.7-17.66-91.01,1.54-32.26,8.45-62.33,20.74-90.24,12.29-27.9,29.05-52.48,50.3-73.73s46.2-37.88,74.88-49.92c28.67-12.02,60.41-18.05,95.23-18.05s65.53,7.18,90.62,21.5c25.08,14.34,43.89,33.92,56.45,58.75,12.54,24.84,18.05,53.64,16.51,86.4-.52,11.27-1.8,22.54-3.84,33.79-2.05,11.27-4.36,21.5-6.91,30.72h-313.34l12.29-67.58h197.38c2.04-14.84.38-27.52-4.99-38.02-5.38-10.49-13.19-18.68-23.42-24.58-10.25-5.88-22.54-8.83-36.86-8.83-16.39,0-31.87,3.84-46.46,11.52-14.59,7.68-27.26,19.33-38.02,34.94-10.75,15.62-17.93,35.21-21.5,58.75l-3.84,22.27c-3.07,17.93-2.44,33.92,1.92,48,4.34,14.09,12.29,24.96,23.81,32.64,11.52,7.68,26.23,11.52,44.16,11.52,16.9,0,31.36-3.32,43.39-9.98,12.02-6.65,22.14-15.36,30.34-26.11h118.27c-12.29,24.07-28.8,46.08-49.54,66.05-20.74,19.97-44.54,35.59-71.42,46.85-26.88,11.26-55.68,16.9-86.4,16.9Z"/>
    </g>
  </g>
</svg>